<svg xmlns="http://www.w3.org/2000/svg" xmlns:xlink="http://www.w3.org/1999/xlink" width="500" zoomAndPan="magnify" viewBox="0 0 375 374.999991" height="500" preserveAspectRatio="xMidYMid meet" version="1.0"><defs><g/><clipPath id="8c53e9d697"><path d="M 148 116.042969 L 158 116.042969 L 158 158 L 148 158 Z M 148 116.042969 " clip-rule="nonzero"/></clipPath><clipPath id="e1b69449a6"><path d="M 203.625 147.746094 L 260.195312 147.746094 L 260.195312 181.144531 L 203.625 181.144531 Z M 203.625 147.746094 " clip-rule="nonzero"/></clipPath><clipPath id="13f3f2faac"><path d="M 173.1875 171.875 L 230.441406 171.875 L 230.441406 195.492188 L 173.1875 195.492188 Z M 173.1875 171.875 " clip-rule="nonzero"/></clipPath><clipPath id="1bd2c6350a"><rect x="0" width="301" y="0" height="46"/></clipPath><clipPath id="0e70fa41e6"><path d="M 0.28125 5 L 12 5 L 12 18 L 0.28125 18 Z M 0.28125 5 " clip-rule="nonzero"/></clipPath><clipPath id="7aaaa6c77c"><rect x="0" width="161" y="0" height="23"/></clipPath></defs><path stroke-linecap="butt" transform="matrix(0.75, 0, 0, 0.75, 39.046478, 247.086399)" fill="none" stroke-linejoin="miter" d="M 0.000529739 2.999385 L 81.781785 2.999385 " stroke="#d30000" stroke-width="6" stroke-opacity="1" stroke-miterlimit="4"/><path stroke-linecap="butt" transform="matrix(0.75, 0, 0, 0.75, 274.616706, 247.086399)" fill="none" stroke-linejoin="miter" d="M 0.000642444 2.999385 L 81.781898 2.999385 " stroke="#d30000" stroke-width="6" stroke-opacity="1" stroke-miterlimit="4"/><path fill="#0c3265" d="M 192.863281 123.125 L 181.355469 127.566406 L 181.355469 136.648438 L 190.777344 138.195312 L 190.777344 166.589844 L 193.132812 166.589844 L 192.863281 123.125 " fill-opacity="1" fill-rule="evenodd"/><path fill="#0c3265" d="M 187.917969 143.984375 L 179.203125 142.949219 L 179.203125 144.398438 L 187.917969 145.429688 L 187.917969 143.984375 " fill-opacity="1" fill-rule="evenodd"/><path fill="#0c3265" d="M 187.917969 151.585938 L 179.203125 150.554688 L 179.203125 152 L 187.917969 153.03125 L 187.917969 151.585938 " fill-opacity="1" fill-rule="evenodd"/><path fill="#0c3265" d="M 187.917969 159.191406 L 179.203125 158.15625 L 179.203125 159.605469 L 187.917969 160.636719 L 187.917969 159.191406 " fill-opacity="1" fill-rule="evenodd"/><path fill="#0c3265" d="M 172.308594 125.378906 L 167.96875 124.835938 L 167.96875 129.074219 L 172.308594 129.617188 L 172.308594 125.378906 " fill-opacity="1" fill-rule="evenodd"/><path fill="#0c3265" d="M 172.308594 134.394531 L 167.96875 133.851562 L 167.96875 138.089844 L 172.308594 138.632812 L 172.308594 134.394531 " fill-opacity="1" fill-rule="evenodd"/><path fill="#0c3265" d="M 172.308594 143.410156 L 167.96875 142.867188 L 167.96875 147.109375 L 172.308594 147.648438 L 172.308594 143.410156 " fill-opacity="1" fill-rule="evenodd"/><path fill="#0c3265" d="M 164.332031 124.097656 L 159.992188 123.558594 L 159.992188 127.796875 L 164.332031 128.339844 L 164.332031 124.097656 " fill-opacity="1" fill-rule="evenodd"/><path fill="#0c3265" d="M 164.332031 133.117188 L 159.992188 132.574219 L 159.992188 136.8125 L 164.332031 137.355469 L 164.332031 133.117188 " fill-opacity="1" fill-rule="evenodd"/><path fill="#0c3265" d="M 164.332031 142.132812 L 159.992188 141.589844 L 159.992188 145.828125 L 164.332031 146.371094 L 164.332031 142.132812 " fill-opacity="1" fill-rule="evenodd"/><path fill="#0c3265" d="M 152.625 143.09375 L 149.730469 142.734375 L 149.730469 145.558594 L 152.625 145.921875 L 152.625 143.09375 " fill-opacity="1" fill-rule="evenodd"/><path fill="#0c3265" d="M 147.78125 150.765625 L 144.886719 150.40625 L 144.886719 153.230469 L 147.78125 153.59375 L 147.78125 150.765625 " fill-opacity="1" fill-rule="evenodd"/><path fill="#0c3265" d="M 152.625 164.898438 L 149.730469 164.535156 L 149.730469 167.363281 L 152.625 167.722656 L 152.625 164.898438 " fill-opacity="1" fill-rule="evenodd"/><path fill="#0c3265" d="M 147.714844 170.953125 L 144.820312 170.589844 L 144.820312 173.417969 L 147.714844 173.777344 L 147.714844 170.953125 " fill-opacity="1" fill-rule="evenodd"/><path fill="#0c3265" d="M 177.386719 135.539062 L 174.257812 137.617188 L 174.257812 176.910156 L 177.386719 174.832031 L 177.386719 135.539062 " fill-opacity="1" fill-rule="evenodd"/><g clip-path="url(#8c53e9d697)"><path fill="#0c3265" d="M 157.523438 116.050781 L 148.40625 124.617188 L 148.339844 135.773438 L 154.394531 136.648438 L 154.394531 157.988281 L 157.523438 155.339844 L 157.523438 116.050781 " fill-opacity="1" fill-rule="evenodd"/></g><path fill="#0c3265" d="M 141.8125 134.164062 L 130.769531 144.648438 L 130.769531 183.316406 L 141.8125 181.042969 L 141.8125 134.164062 " fill-opacity="1" fill-rule="evenodd"/><g clip-path="url(#e1b69449a6)"><path fill="#0c3265" d="M 208.113281 158.085938 L 203.648438 159.890625 L 209.230469 165.210938 L 210.515625 174.996094 L 216.011719 174.222656 L 216.867188 168.472656 L 230.773438 164.351562 L 239.183594 181.089844 L 244.9375 179.460938 L 242.191406 170.53125 C 242.191406 170.53125 243.542969 170.097656 244.253906 169.699219 C 245.527344 168.988281 245.828125 166.007812 243.914062 165.8125 C 243.027344 165.71875 242.015625 165.726562 242.015625 165.726562 L 240.472656 161.519531 C 240.105469 160.519531 261.269531 157.167969 260.214844 152.59375 C 259.957031 151.476562 259.355469 150.019531 258.5 149.675781 C 251.777344 146.988281 233.492188 156.816406 232.660156 156.113281 L 231.546875 155.167969 C 230.980469 154.6875 233.875 151.734375 228.457031 151.734375 C 227.597656 151.734375 225.539062 153.539062 225.539062 153.539062 L 216.953125 147.785156 L 211.203125 149.847656 L 225.109375 159.203125 L 215.324219 162.292969 L 208.113281 158.085938 " fill-opacity="1" fill-rule="evenodd"/></g><path fill="#0c3265" d="M 128.972656 163.136719 C 97.6875 196.734375 197.523438 170.453125 206.753906 167.179688 L 207.785156 169.507812 C 195.355469 176.996094 82.441406 205.871094 128.800781 160.214844 L 128.972656 163.136719 " fill-opacity="1" fill-rule="evenodd"/><g clip-path="url(#13f3f2faac)"><path fill="#0c3265" d="M 225.824219 179.605469 C 225.824219 187.105469 211.789062 193.191406 194.484375 193.191406 C 186.289062 193.191406 178.828125 191.828125 173.242188 189.59375 C 178.894531 193.15625 188.359375 195.492188 199.082031 195.492188 C 216.390625 195.492188 230.425781 189.40625 230.425781 181.90625 C 230.425781 177.953125 226.535156 174.398438 220.324219 171.914062 C 223.792969 174.101562 225.824219 176.75 225.824219 179.605469 " fill-opacity="1" fill-rule="evenodd"/></g><g transform="matrix(1, 0, 0, 1, 37, 197)"><g clip-path="url(#1bd2c6350a)"><g fill="#d30000" fill-opacity="1"><g transform="translate(0.610879, 35.351082)"><g><path d="M 12.796875 0.34375 C 10.640625 0.34375 8.738281 -0.101562 7.09375 -1 C 5.445312 -1.90625 4.160156 -3.253906 3.234375 -5.046875 C 2.304688 -6.847656 1.84375 -9.066406 1.84375 -11.703125 C 1.84375 -14.335938 2.304688 -16.554688 3.234375 -18.359375 C 4.160156 -20.160156 5.445312 -21.507812 7.09375 -22.40625 C 8.738281 -23.300781 10.640625 -23.75 12.796875 -23.75 C 15.046875 -23.75 16.957031 -23.304688 18.53125 -22.421875 C 20.101562 -21.546875 21.226562 -20.207031 21.90625 -18.40625 L 18.53125 -16.328125 L 18.125 -16.34375 C 17.625 -17.5625 16.941406 -18.4375 16.078125 -18.96875 C 15.222656 -19.5 14.128906 -19.765625 12.796875 -19.765625 C 10.847656 -19.765625 9.328125 -19.117188 8.234375 -17.828125 C 7.148438 -16.546875 6.609375 -14.503906 6.609375 -11.703125 C 6.609375 -8.921875 7.148438 -6.882812 8.234375 -5.59375 C 9.328125 -4.3125 10.847656 -3.671875 12.796875 -3.671875 C 15.835938 -3.671875 17.703125 -5.148438 18.390625 -8.109375 L 18.78125 -8.109375 L 22.203125 -6.328125 C 21.554688 -4.109375 20.457031 -2.441406 18.90625 -1.328125 C 17.363281 -0.210938 15.328125 0.34375 12.796875 0.34375 Z M 12.796875 0.34375 "/></g></g></g><g fill="#d30000" fill-opacity="1"><g transform="translate(23.573688, 35.351082)"><g><path d="M 7.671875 0 L 3.046875 0 L 3.046875 -23.40625 L 7.671875 -23.40625 Z M 7.671875 0 "/></g></g></g><g fill="#d30000" fill-opacity="1"><g transform="translate(34.302476, 35.351082)"><g><path d="M 18.765625 -23.40625 L 18.765625 -19.515625 L 12.015625 -19.515625 L 12.015625 0 L 7.40625 0 L 7.40625 -19.515625 L 0.640625 -19.515625 L 0.640625 -23.40625 Z M 18.765625 -23.40625 "/></g></g></g><g fill="#d30000" fill-opacity="1"><g transform="translate(53.710374, 35.351082)"><g><path d="M 12.828125 0 L 8.203125 0 L 8.203125 -9.1875 L 0.109375 -23.40625 L 5.078125 -23.40625 L 10.421875 -14.203125 L 10.828125 -14.203125 L 16.0625 -23.40625 L 20.921875 -23.40625 L 12.828125 -9.1875 Z M 12.828125 0 "/></g></g></g><g fill="#d30000" fill-opacity="1"><g transform="translate(74.735596, 35.351082)"><g><path d="M 7.671875 -23.40625 L 7.671875 -3.875 L 18.1875 -3.875 L 18.1875 0 L 3.046875 0 L 3.046875 -23.40625 Z M 7.671875 -23.40625 "/></g></g></g><g fill="#d30000" fill-opacity="1"><g transform="translate(93.695125, 35.351082)"><g><path d="M 22.46875 0 L 17.59375 0 L 15.84375 -5.390625 L 6.875 -5.390625 L 5.109375 0 L 0.359375 0 L 8.4375 -23.40625 L 14.375 -23.40625 Z M 11.125 -18.53125 L 8.125 -9.28125 L 14.5625 -9.28125 L 11.53125 -18.53125 Z M 11.125 -18.53125 "/></g></g></g><g fill="#d30000" fill-opacity="1"><g transform="translate(116.513816, 35.351082)"><g><path d="M 7.53125 0 L 3.046875 0 L 3.046875 -23.40625 L 8.34375 -23.40625 L 17.75 -8.328125 L 18.15625 -8.390625 L 18.15625 -23.40625 L 22.609375 -23.40625 L 22.609375 0 L 17.875 0 L 7.921875 -16.109375 L 7.53125 -16.046875 Z M 7.53125 0 "/></g></g></g><g fill="#d30000" fill-opacity="1"><g transform="translate(142.198855, 35.351082)"><g><path d="M 11.46875 -23.40625 C 15.269531 -23.40625 18.171875 -22.421875 20.171875 -20.453125 C 22.171875 -18.492188 23.171875 -15.578125 23.171875 -11.703125 C 23.171875 -7.835938 22.171875 -4.921875 20.171875 -2.953125 C 18.171875 -0.984375 15.269531 0 11.46875 0 L 3.046875 0 L 3.046875 -23.40625 Z M 11.1875 -3.890625 C 13.601562 -3.890625 15.410156 -4.503906 16.609375 -5.734375 C 17.804688 -6.972656 18.40625 -8.960938 18.40625 -11.703125 C 18.40625 -14.453125 17.804688 -16.441406 16.609375 -17.671875 C 15.410156 -18.898438 13.601562 -19.515625 11.1875 -19.515625 L 7.671875 -19.515625 L 7.671875 -3.890625 Z M 11.1875 -3.890625 "/></g></g></g><g fill="#d30000" fill-opacity="1"><g transform="translate(167.211343, 35.351082)"><g/></g></g><g fill="#d30000" fill-opacity="1"><g transform="translate(174.945678, 35.351082)"><g><path d="M 18.765625 -23.40625 L 18.765625 -19.515625 L 12.015625 -19.515625 L 12.015625 0 L 7.40625 0 L 7.40625 -19.515625 L 0.640625 -19.515625 L 0.640625 -23.40625 Z M 18.765625 -23.40625 "/></g></g></g><g fill="#d30000" fill-opacity="1"><g transform="translate(194.353576, 35.351082)"><g><path d="M 3.046875 0 L 3.046875 -23.40625 L 12.4375 -23.40625 C 14.863281 -23.40625 16.691406 -22.847656 17.921875 -21.734375 C 19.160156 -20.617188 19.78125 -19.082031 19.78125 -17.125 C 19.78125 -15.695312 19.414062 -14.53125 18.6875 -13.625 C 17.96875 -12.71875 16.894531 -12.023438 15.46875 -11.546875 L 15.46875 -11.203125 C 16.207031 -10.890625 16.800781 -10.414062 17.25 -9.78125 C 17.707031 -9.15625 18.140625 -8.222656 18.546875 -6.984375 L 20.875 0 L 16.125 0 L 13.84375 -7 C 13.601562 -7.707031 13.335938 -8.253906 13.046875 -8.640625 C 12.753906 -9.023438 12.378906 -9.304688 11.921875 -9.484375 C 11.460938 -9.660156 10.875 -9.75 10.15625 -9.75 L 7.671875 -9.75 L 7.671875 0 Z M 11.875 -13.421875 C 14.125 -13.421875 15.25 -14.46875 15.25 -16.5625 C 15.25 -18.6875 14.125 -19.75 11.875 -19.75 L 7.671875 -19.75 L 7.671875 -13.421875 Z M 11.875 -13.421875 "/></g></g></g><g fill="#d30000" fill-opacity="1"><g transform="translate(216.243506, 35.351082)"><g><path d="M 22.46875 0 L 17.59375 0 L 15.84375 -5.390625 L 6.875 -5.390625 L 5.109375 0 L 0.359375 0 L 8.4375 -23.40625 L 14.375 -23.40625 Z M 11.125 -18.53125 L 8.125 -9.28125 L 14.5625 -9.28125 L 11.53125 -18.53125 Z M 11.125 -18.53125 "/></g></g></g><g fill="#d30000" fill-opacity="1"><g transform="translate(239.062185, 35.351082)"><g><path d="M 13.921875 0 L 8.328125 0 L 0.421875 -23.40625 L 5.328125 -23.40625 L 11.015625 -5.953125 L 11.421875 -5.953125 L 17.015625 -23.40625 L 21.8125 -23.40625 Z M 13.921875 0 "/></g></g></g><g fill="#d30000" fill-opacity="1"><g transform="translate(261.28839, 35.351082)"><g><path d="M 7.671875 -10.28125 L 7.671875 -3.875 L 18.84375 -3.875 L 18.84375 0 L 3.046875 0 L 3.046875 -23.40625 L 18.59375 -23.40625 L 18.59375 -19.53125 L 7.671875 -19.53125 L 7.671875 -14.0625 L 17.21875 -14.0625 L 17.21875 -10.28125 Z M 7.671875 -10.28125 "/></g></g></g><g fill="#d30000" fill-opacity="1"><g transform="translate(281.41689, 35.351082)"><g><path d="M 7.671875 -23.40625 L 7.671875 -3.875 L 18.1875 -3.875 L 18.1875 0 L 3.046875 0 L 3.046875 -23.40625 Z M 7.671875 -23.40625 "/></g></g></g></g></g><g transform="matrix(1, 0, 0, 1, 107, 238)"><g clip-path="url(#7aaaa6c77c)"><g clip-path="url(#0e70fa41e6)"><g fill="#0c3265" fill-opacity="1"><g transform="translate(0.504012, 17.446931)"><g><path d="M 11.0625 0 L 8.65625 0 L 7.796875 -2.65625 L 3.375 -2.65625 L 2.515625 0 L 0.171875 0 L 4.15625 -11.515625 L 7.078125 -11.515625 Z M 5.484375 -9.125 L 4 -4.578125 L 7.15625 -4.578125 L 5.671875 -9.125 Z M 5.484375 -9.125 "/></g></g></g></g><g fill="#0c3265" fill-opacity="1"><g transform="translate(11.733345, 17.446931)"><g><path d="M 5.59375 0.171875 C 4.632812 0.171875 3.800781 -0.046875 3.09375 -0.484375 C 2.394531 -0.929688 1.851562 -1.597656 1.46875 -2.484375 C 1.09375 -3.367188 0.90625 -4.460938 0.90625 -5.765625 C 0.90625 -7.078125 1.132812 -8.175781 1.59375 -9.0625 C 2.050781 -9.945312 2.6875 -10.601562 3.5 -11.03125 C 4.3125 -11.46875 5.253906 -11.6875 6.328125 -11.6875 C 7.421875 -11.6875 8.359375 -11.476562 9.140625 -11.0625 C 9.921875 -10.65625 10.46875 -10.050781 10.78125 -9.25 L 9.125 -8.234375 L 8.921875 -8.25 C 8.679688 -8.757812 8.347656 -9.128906 7.921875 -9.359375 C 7.492188 -9.597656 6.960938 -9.71875 6.328125 -9.71875 C 5.328125 -9.71875 4.5625 -9.40625 4.03125 -8.78125 C 3.507812 -8.15625 3.25 -7.148438 3.25 -5.765625 C 3.25 -4.367188 3.492188 -3.351562 3.984375 -2.71875 C 4.484375 -2.09375 5.210938 -1.78125 6.171875 -1.78125 C 7.003906 -1.78125 7.613281 -1.96875 8 -2.34375 C 8.394531 -2.71875 8.59375 -3.273438 8.59375 -4.015625 L 8.59375 -4.515625 L 5.875 -4.515625 L 5.875 -6.359375 L 10.859375 -6.359375 L 10.859375 0 L 8.6875 0 L 8.6875 -1.546875 L 8.515625 -1.5625 C 8.285156 -1.007812 7.925781 -0.582031 7.4375 -0.28125 C 6.957031 0.0195312 6.34375 0.171875 5.59375 0.171875 Z M 5.59375 0.171875 "/></g></g></g><g fill="#0c3265" fill-opacity="1"><g transform="translate(23.750702, 17.446931)"><g><path d="M 3.78125 -5.0625 L 3.78125 -1.90625 L 9.28125 -1.90625 L 9.28125 0 L 1.5 0 L 1.5 -11.515625 L 9.15625 -11.515625 L 9.15625 -9.609375 L 3.78125 -9.609375 L 3.78125 -6.921875 L 8.46875 -6.921875 L 8.46875 -5.0625 Z M 3.78125 -5.0625 "/></g></g></g><g fill="#0c3265" fill-opacity="1"><g transform="translate(33.656156, 17.446931)"><g><path d="M 3.703125 0 L 1.5 0 L 1.5 -11.515625 L 4.109375 -11.515625 L 8.734375 -4.09375 L 8.9375 -4.125 L 8.9375 -11.515625 L 11.125 -11.515625 L 11.125 0 L 8.796875 0 L 3.90625 -7.921875 L 3.703125 -7.890625 Z M 3.703125 0 "/></g></g></g><g fill="#0c3265" fill-opacity="1"><g transform="translate(46.296051, 17.446931)"><g><path d="M 6.296875 0.171875 C 5.234375 0.171875 4.296875 -0.046875 3.484375 -0.484375 C 2.679688 -0.929688 2.050781 -1.597656 1.59375 -2.484375 C 1.132812 -3.367188 0.90625 -4.460938 0.90625 -5.765625 C 0.90625 -7.054688 1.132812 -8.144531 1.59375 -9.03125 C 2.050781 -9.914062 2.679688 -10.578125 3.484375 -11.015625 C 4.296875 -11.460938 5.234375 -11.6875 6.296875 -11.6875 C 7.398438 -11.6875 8.335938 -11.46875 9.109375 -11.03125 C 9.890625 -10.601562 10.445312 -9.945312 10.78125 -9.0625 L 9.125 -8.03125 L 8.921875 -8.046875 C 8.671875 -8.640625 8.332031 -9.066406 7.90625 -9.328125 C 7.488281 -9.585938 6.953125 -9.71875 6.296875 -9.71875 C 5.335938 -9.71875 4.585938 -9.398438 4.046875 -8.765625 C 3.515625 -8.140625 3.25 -7.140625 3.25 -5.765625 C 3.25 -4.390625 3.515625 -3.382812 4.046875 -2.75 C 4.585938 -2.125 5.335938 -1.8125 6.296875 -1.8125 C 7.796875 -1.8125 8.710938 -2.535156 9.046875 -3.984375 L 9.25 -3.984375 L 10.921875 -3.109375 C 10.609375 -2.015625 10.070312 -1.191406 9.3125 -0.640625 C 8.550781 -0.0976562 7.546875 0.171875 6.296875 0.171875 Z M 6.296875 0.171875 "/></g></g></g><g fill="#0c3265" fill-opacity="1"><g transform="translate(57.596307, 17.446931)"><g><path d="M 3.78125 0 L 1.5 0 L 1.5 -11.515625 L 3.78125 -11.515625 Z M 3.78125 0 "/></g></g></g><g fill="#0c3265" fill-opacity="1"><g transform="translate(62.876064, 17.446931)"><g><path d="M 11.0625 0 L 8.65625 0 L 7.796875 -2.65625 L 3.375 -2.65625 L 2.515625 0 L 0.171875 0 L 4.15625 -11.515625 L 7.078125 -11.515625 Z M 5.484375 -9.125 L 4 -4.578125 L 7.15625 -4.578125 L 5.671875 -9.125 Z M 5.484375 -9.125 "/></g></g></g><g fill="#0c3265" fill-opacity="1"><g transform="translate(74.105397, 17.446931)"><g/></g></g><g fill="#0c3265" fill-opacity="1"><g transform="translate(77.91155, 17.446931)"><g><path d="M 5.640625 -11.515625 C 7.515625 -11.515625 8.941406 -11.03125 9.921875 -10.0625 C 10.910156 -9.101562 11.40625 -7.671875 11.40625 -5.765625 C 11.40625 -3.859375 10.910156 -2.421875 9.921875 -1.453125 C 8.941406 -0.484375 7.515625 0 5.640625 0 L 1.5 0 L 1.5 -11.515625 Z M 5.515625 -1.921875 C 6.703125 -1.921875 7.585938 -2.222656 8.171875 -2.828125 C 8.765625 -3.429688 9.0625 -4.410156 9.0625 -5.765625 C 9.0625 -7.109375 8.765625 -8.082031 8.171875 -8.6875 C 7.585938 -9.300781 6.703125 -9.609375 5.515625 -9.609375 L 3.78125 -9.609375 L 3.78125 -1.921875 Z M 5.515625 -1.921875 "/></g></g></g><g fill="#0c3265" fill-opacity="1"><g transform="translate(90.220475, 17.446931)"><g><path d="M 3.78125 -5.0625 L 3.78125 -1.90625 L 9.28125 -1.90625 L 9.28125 0 L 1.5 0 L 1.5 -11.515625 L 9.15625 -11.515625 L 9.15625 -9.609375 L 3.78125 -9.609375 L 3.78125 -6.921875 L 8.46875 -6.921875 L 8.46875 -5.0625 Z M 3.78125 -5.0625 "/></g></g></g><g fill="#0c3265" fill-opacity="1"><g transform="translate(100.125929, 17.446931)"><g/></g></g><g fill="#0c3265" fill-opacity="1"><g transform="translate(103.932082, 17.446931)"><g><path d="M 6.84375 0 L 4.09375 0 L 0.203125 -11.515625 L 2.625 -11.515625 L 5.421875 -2.9375 L 5.625 -2.9375 L 8.375 -11.515625 L 10.734375 -11.515625 Z M 6.84375 0 "/></g></g></g><g fill="#0c3265" fill-opacity="1"><g transform="translate(114.869846, 17.446931)"><g><path d="M 3.78125 0 L 1.5 0 L 1.5 -11.515625 L 3.78125 -11.515625 Z M 3.78125 0 "/></g></g></g><g fill="#0c3265" fill-opacity="1"><g transform="translate(120.149603, 17.446931)"><g><path d="M 11.0625 0 L 8.65625 0 L 7.796875 -2.65625 L 3.375 -2.65625 L 2.515625 0 L 0.171875 0 L 4.15625 -11.515625 L 7.078125 -11.515625 Z M 5.484375 -9.125 L 4 -4.578125 L 7.15625 -4.578125 L 5.671875 -9.125 Z M 5.484375 -9.125 "/></g></g></g><g fill="#0c3265" fill-opacity="1"><g transform="translate(131.378936, 17.446931)"><g><path d="M 4.03125 0.171875 C 3.050781 0.171875 2.238281 -0.015625 1.59375 -0.390625 C 0.945312 -0.765625 0.476562 -1.265625 0.1875 -1.890625 L 1.46875 -3.4375 L 1.671875 -3.4375 C 1.878906 -2.9375 2.175781 -2.539062 2.5625 -2.25 C 2.945312 -1.957031 3.394531 -1.8125 3.90625 -1.8125 C 4.476562 -1.8125 4.90625 -1.976562 5.1875 -2.3125 C 5.46875 -2.644531 5.609375 -3.1875 5.609375 -3.9375 L 5.609375 -11.515625 L 7.875 -11.515625 L 7.875 -3.90625 C 7.875 -2.507812 7.554688 -1.476562 6.921875 -0.8125 C 6.285156 -0.15625 5.320312 0.171875 4.03125 0.171875 Z M 4.03125 0.171875 "/></g></g></g><g fill="#0c3265" fill-opacity="1"><g transform="translate(140.677612, 17.446931)"><g><path d="M 3.78125 -5.0625 L 3.78125 -1.90625 L 9.28125 -1.90625 L 9.28125 0 L 1.5 0 L 1.5 -11.515625 L 9.15625 -11.515625 L 9.15625 -9.609375 L 3.78125 -9.609375 L 3.78125 -6.921875 L 8.46875 -6.921875 L 8.46875 -5.0625 Z M 3.78125 -5.0625 "/></g></g></g><g fill="#0c3265" fill-opacity="1"><g transform="translate(150.583066, 17.446931)"><g><path d="M 5.109375 0.171875 C 4.304688 0.171875 3.59375 0.0703125 2.96875 -0.125 C 2.351562 -0.320312 1.835938 -0.582031 1.421875 -0.90625 C 1.003906 -1.226562 0.6875 -1.582031 0.46875 -1.96875 L 1.71875 -3.484375 L 1.921875 -3.484375 C 2.265625 -2.972656 2.703125 -2.566406 3.234375 -2.265625 C 3.765625 -1.960938 4.390625 -1.8125 5.109375 -1.8125 C 5.710938 -1.8125 6.171875 -1.9375 6.484375 -2.1875 C 6.796875 -2.445312 6.953125 -2.800781 6.953125 -3.25 C 6.953125 -3.53125 6.898438 -3.757812 6.796875 -3.9375 C 6.703125 -4.125 6.535156 -4.28125 6.296875 -4.40625 C 6.066406 -4.539062 5.753906 -4.65625 5.359375 -4.75 L 3.890625 -5.09375 C 2.847656 -5.332031 2.070312 -5.722656 1.5625 -6.265625 C 1.0625 -6.816406 0.8125 -7.53125 0.8125 -8.40625 C 0.8125 -9.0625 0.972656 -9.632812 1.296875 -10.125 C 1.617188 -10.625 2.09375 -11.007812 2.71875 -11.28125 C 3.34375 -11.550781 4.085938 -11.6875 4.953125 -11.6875 C 5.847656 -11.6875 6.609375 -11.566406 7.234375 -11.328125 C 7.867188 -11.097656 8.40625 -10.742188 8.84375 -10.265625 L 7.71875 -8.71875 L 7.515625 -8.71875 C 7.191406 -9.0625 6.816406 -9.316406 6.390625 -9.484375 C 5.972656 -9.648438 5.492188 -9.734375 4.953125 -9.734375 C 4.328125 -9.734375 3.851562 -9.625 3.53125 -9.40625 C 3.207031 -9.1875 3.046875 -8.882812 3.046875 -8.5 C 3.046875 -8.132812 3.160156 -7.84375 3.390625 -7.625 C 3.617188 -7.414062 4.015625 -7.25 4.578125 -7.125 L 6.078125 -6.8125 C 7.203125 -6.570312 8.015625 -6.171875 8.515625 -5.609375 C 9.023438 -5.046875 9.28125 -4.304688 9.28125 -3.390625 C 9.28125 -2.671875 9.125 -2.046875 8.8125 -1.515625 C 8.5 -0.984375 8.03125 -0.566406 7.40625 -0.265625 C 6.78125 0.0234375 6.015625 0.171875 5.109375 0.171875 Z M 5.109375 0.171875 "/></g></g></g></g></g></svg>