<svg xmlns="http://www.w3.org/2000/svg" viewBox="55 88 230 182" width="460" height="364">
<!-- Icono: edificios + avión + estela -->
<path fill="#0c3265" d="M 194.210938 107.03125 L 179.828125 112.582031 L 179.828125 123.9375 L 191.601562 125.871094 L 191.601562 161.367188 L 194.546875 161.367188 L 194.210938 107.03125" fill-rule="evenodd"/>
<path fill="#0c3265" d="M 188.027344 133.105469 L 177.132812 131.816406 L 177.132812 133.625 L 188.027344 134.914062 Z" fill-rule="evenodd"/>
<path fill="#0c3265" d="M 188.027344 142.609375 L 177.132812 141.320312 L 177.132812 143.128906 L 188.027344 144.417969 Z" fill-rule="evenodd"/>
<path fill="#0c3265" d="M 188.027344 152.113281 L 177.132812 150.824219 L 177.132812 152.632812 L 188.027344 153.921875 Z" fill-rule="evenodd"/>
<path fill="#0c3265" d="M 168.511719 109.847656 L 163.085938 109.171875 L 163.085938 114.46875 L 168.511719 115.148438 Z" fill-rule="evenodd"/>
<path fill="#0c3265" d="M 168.511719 121.121094 L 163.085938 120.441406 L 163.085938 125.742188 L 168.511719 126.417969 Z" fill-rule="evenodd"/>
<path fill="#0c3265" d="M 168.511719 132.390625 L 163.085938 131.710938 L 163.085938 137.011719 L 168.511719 137.691406 Z" fill-rule="evenodd"/>
<path fill="#0c3265" d="M 158.546875 108.25 L 153.121094 107.574219 L 153.121094 112.871094 L 158.546875 113.550781 Z" fill-rule="evenodd"/>
<path fill="#0c3265" d="M 158.546875 119.519531 L 153.121094 118.84375 L 153.121094 124.144531 L 158.546875 124.820312 Z" fill-rule="evenodd"/>
<path fill="#0c3265" d="M 158.546875 130.792969 L 153.121094 130.113281 L 153.121094 135.414062 L 158.546875 136.089844 Z" fill-rule="evenodd"/>
<path fill="#0c3265" d="M 143.910156 131.996094 L 140.292969 131.542969 L 140.292969 135.078125 L 143.910156 135.53125 Z" fill-rule="evenodd"/>
<path fill="#0c3265" d="M 137.855469 141.585938 L 134.238281 141.132812 L 134.238281 144.667969 L 137.855469 145.117188 Z" fill-rule="evenodd"/>
<path fill="#0c3265" d="M 143.910156 159.25 L 140.292969 158.796875 L 140.292969 162.332031 L 143.910156 162.78125 Z" fill-rule="evenodd"/>
<path fill="#0c3265" d="M 137.769531 166.820312 L 134.152344 166.367188 L 134.152344 169.902344 L 137.769531 170.351562 Z" fill-rule="evenodd"/>
<path fill="#0c3265" d="M 174.863281 122.550781 L 170.953125 125.148438 L 170.953125 174.265625 L 174.863281 171.667969 Z" fill-rule="evenodd"/>
<path fill="#0c3265" d="M 150.035156 98.1875 L 138.636719 108.898438 L 138.554688 122.84375 L 146.125 123.9375 L 146.125 150.613281 L 150.035156 147.304688 Z" fill-rule="evenodd"/>
<path fill="#0c3265" d="M 130.390625 120.832031 L 116.589844 133.9375 L 116.589844 182.277344 L 130.390625 179.433594 Z" fill-rule="evenodd"/>
<path fill="#0c3265" d="M 213.273438 150.734375 L 207.691406 152.988281 L 214.667969 159.640625 L 216.277344 171.875 L 223.144531 170.90625 L 224.21875 163.71875 L 241.597656 158.570312 L 252.113281 179.492188 L 259.304688 177.453125 L 255.871094 166.292969 C 255.871094 166.292969 257.558594 165.75 258.449219 165.253906 C 260.042969 164.363281 260.417969 160.636719 258.023438 160.390625 C 256.917969 160.277344 255.65625 160.285156 255.65625 160.285156 L 253.722656 155.027344 C 253.265625 153.777344 279.722656 149.585938 278.402344 143.871094 C 278.078125 142.472656 277.328125 140.648438 276.257812 140.222656 C 267.855469 136.859375 245 149.148438 243.960938 148.269531 L 242.566406 147.085938 C 241.855469 146.488281 245.476562 142.796875 238.703125 142.796875 C 237.628906 142.796875 235.054688 145.050781 235.054688 145.050781 L 224.324219 137.859375 L 217.136719 140.433594 L 234.519531 152.132812 L 222.285156 155.992188 Z" fill-rule="evenodd"/>
<path fill="#0c3265" d="M 114.339844 157.050781 C 75.234375 199.046875 200.035156 166.195312 211.570312 162.101562 L 212.863281 165.011719 C 197.324219 174.371094 56.179688 210.464844 114.125 153.394531 Z" fill-rule="evenodd"/>
<path fill="#0c3265" d="M 235.414062 177.632812 C 235.414062 187.011719 217.867188 194.617188 196.234375 194.617188 C 185.992188 194.617188 176.664062 192.914062 169.683594 190.121094 C 176.746094 194.574219 188.582031 197.492188 201.984375 197.492188 C 223.621094 197.492188 241.164062 189.886719 241.164062 180.507812 C 241.164062 175.570312 236.300781 171.125 228.535156 168.023438 C 232.875 170.753906 235.414062 174.066406 235.414062 177.632812" fill-rule="evenodd"/>
<!-- Texto: CITYLAND TRAVEL -->
<text x="170" y="228" text-anchor="middle" font-family="Arial Black, Arial, sans-serif" font-weight="900" font-size="24" fill="#d30000" letter-spacing="3">CITYLAND TRAVEL</text>
<!-- Líneas rojas -->
<line x1="60" y1="237" x2="120" y2="237" stroke="#d30000" stroke-width="3"/>
<line x1="220" y1="237" x2="280" y2="237" stroke="#d30000" stroke-width="3"/>
<!-- Subtexto -->
<text x="170" y="253" text-anchor="middle" font-family="Arial, sans-serif" font-weight="600" font-size="10" fill="#0c3265" letter-spacing="4">AGENCIA DE VIAJES</text>
</svg>
